<?xml version="1.0" standalone="no"?>
<!DOCTYPE svg PUBLIC "-//W3C//DTD SVG 20010904//EN"
 "http://www.w3.org/TR/2001/REC-SVG-20010904/DTD/svg10.dtd">
<svg version="1.0" xmlns="http://www.w3.org/2000/svg"
 width="500.000000pt" height="500.000000pt" viewBox="0 0 500.000000 500.000000"
 preserveAspectRatio="xMidYMid meet">

<g transform="translate(0.000000,500.000000) scale(0.100000,-0.100000)"
fill="#000000" stroke="none">
<path d="M2390 3723 c-91 -14 -200 -38 -226 -49 -17 -7 -34 -11 -36 -8 -5 5
-42 -10 -163 -66 -59 -27 -208 -122 -249 -159 -76 -68 -188 -189 -201 -218 -9
-18 -19 -33 -23 -33 -14 0 -74 -109 -66 -121 4 -7 3 -9 -3 -6 -16 10 -71 -109
-104 -227 -84 -296 -58 -594 76 -871 65 -135 119 -214 221 -318 202 -205 444
-323 746 -363 225 -29 483 18 699 126 105 53 229 137 254 173 8 12 15 17 15
12 0 -4 11 2 25 15 13 12 22 27 19 32 -3 5 -1 7 5 6 11 -3 101 90 101 103 0 4
13 21 29 38 68 72 202 349 187 387 -3 7 0 14 6 16 6 2 19 42 29 88 27 122 26
343 -1 472 -24 111 -96 300 -140 363 -16 24 -30 47 -30 50 0 16 -94 124 -103
118 -6 -3 -7 -1 -3 5 12 19 -197 213 -235 218 -5 1 -14 2 -20 3 -5 0 -8 5 -5
10 3 5 -20 22 -52 37 -31 16 -59 31 -62 34 -8 9 -74 35 -82 32 -5 -1 -8 2 -8
8 0 6 -3 10 -7 9 -5 -1 -18 2 -30 6 -12 4 -25 6 -29 5 -4 -1 -10 3 -14 10 -4
6 -23 12 -43 13 -20 1 -37 5 -37 8 0 7 -84 26 -177 39 -69 10 -212 11 -263 3z
m737 -505 c-3 -8 -6 -5 -6 6 -1 11 2 17 5 13 3 -3 4 -12 1 -19z m-602 -288 c3
-5 -1 -10 -10 -10 -9 0 -13 5 -10 10 3 6 8 10 10 10 2 0 7 -4 10 -10z m370 0
c17 -7 17 -9 3 -9 -10 -1 -18 -5 -18 -11 0 -5 -4 -10 -10 -10 -5 0 -10 9 -10
20 0 22 5 23 35 10z m-335 -23 c0 -9 12 -11 40 -9 25 3 40 0 40 -7 0 -6 -6
-11 -14 -11 -26 0 -28 -20 -4 -29 21 -9 21 -10 -9 -10 -17 -1 -38 6 -47 14
-18 18 -21 19 -38 1 -8 -7 -25 -16 -38 -20 -22 -6 -23 -5 -8 6 9 7 26 20 37
28 12 8 21 22 21 32 0 10 5 18 10 18 6 0 10 -6 10 -13z m245 -19 c-19 -11 -30
-5 -21 11 4 6 14 7 22 4 15 -5 14 -7 -1 -15z m-659 -3 c14 -13 13 -15 -5 -15
-21 0 -35 13 -24 24 9 9 13 8 29 -9z m281 -11 c-3 -3 -12 -4 -19 -1 -8 3 -5 6
6 6 11 1 17 -2 13 -5z m-252 -34 c3 -5 1 -10 -4 -10 -6 0 -11 5 -11 10 0 6 2
10 4 10 3 0 8 -4 11 -10z m-322 -88 c22 -20 22 -27 -5 -52 -18 -17 -20 -23 -9
-29 10 -7 14 -34 13 -106 0 -53 -3 -99 -6 -102 -11 -12 -84 -10 -80 1 2 6 6
53 7 104 2 68 7 96 18 103 12 8 12 11 -2 22 -9 6 -18 25 -21 40 -3 15 -3 25 0
23 2 -3 14 1 25 9 21 15 29 13 60 -13z m331 -58 c-2 -63 0 -73 12 -63 8 6 12
15 9 19 -3 4 3 14 13 21 15 13 16 12 3 -3 -8 -11 -9 -18 -3 -18 6 0 14 5 17
10 3 6 24 10 47 10 32 0 39 -3 34 -15 -7 -20 -1 -19 24 2 36 31 150 21 150
-13 0 -7 -8 -19 -17 -26 -26 -19 -25 -34 4 -47 22 -10 25 -9 20 4 -4 8 -2 15
2 15 5 0 12 7 15 16 4 9 2 13 -5 8 -8 -4 -8 0 0 14 6 12 17 24 24 28 9 6 9 4
2 -7 -5 -8 -2 -7 7 3 11 13 35 20 74 23 49 4 60 1 71 -15 17 -24 33 -26 33 -5
0 8 6 15 13 16 6 0 22 2 35 3 12 2 22 -2 22 -7 0 -5 8 -6 18 -2 9 4 29 8 43
10 22 3 26 0 23 -20 l-2 -25 31 24 c57 44 149 23 170 -37 3 -9 8 -9 21 2 9 8
15 20 12 28 -3 8 -1 11 4 8 6 -3 10 -1 10 4 0 6 3 10 8 9 4 -1 24 2 45 6 25 6
48 4 70 -5 17 -8 36 -13 40 -11 5 1 6 -2 2 -8 -3 -5 -2 -10 4 -10 6 0 7 -7 4
-17 -5 -11 -3 -14 6 -9 7 5 10 17 8 28 -6 21 0 25 51 32 17 2 32 0 32 -5 0 -6
6 -7 13 -2 18 11 58 15 76 7 9 -4 21 -8 26 -8 6 -1 10 -43 10 -106 l0 -105
-38 -1 c-37 -1 -39 0 -35 27 3 15 1 26 -2 24 -4 -2 -6 17 -4 43 2 44 0 48 -20
48 -21 0 -23 -4 -21 -68 1 -72 -2 -76 -50 -73 -27 1 -30 5 -33 38 -2 20 -9 37
-15 37 -7 0 -6 4 3 11 12 9 12 10 -3 5 -10 -3 -26 -6 -35 -6 -12 0 -8 -7 13
-24 26 -21 28 -25 13 -31 -10 -4 -15 -12 -11 -18 4 -6 0 -8 -8 -5 -8 3 -23 0
-32 -7 -13 -9 -29 -10 -59 -4 -58 14 -77 26 -84 55 -4 17 -11 23 -22 19 -11
-4 -12 -2 -4 8 8 10 5 13 -14 15 -23 2 -24 0 -10 -14 16 -15 45 -65 31 -52 -4
4 -16 -2 -28 -13 -11 -10 -28 -20 -36 -20 -35 -3 -57 -1 -75 7 -15 6 -17 4
-11 -6 5 -9 4 -11 -4 -6 -6 4 -9 12 -6 17 6 9 -9 14 -30 9 -5 -1 -7 2 -2 6 4
4 0 15 -9 25 -9 10 -17 34 -19 54 -4 45 -8 50 -31 37 -17 -9 -22 -30 -28 -102
-2 -26 -7 -35 -19 -34 -9 1 -26 2 -37 3 -13 1 -20 8 -20 21 0 25 -15 26 -32 1
-7 -10 -24 -22 -38 -26 -35 -11 -79 -12 -73 -1 3 5 -5 7 -19 4 -20 -4 -24 -1
-21 12 2 9 -3 22 -11 29 -9 8 -16 21 -17 30 0 10 -4 8 -10 -7 -5 -13 -7 -28
-4 -32 3 -5 -4 -11 -15 -15 -11 -4 -17 -11 -14 -17 4 -7 2 -8 -4 -4 -7 4 -17
4 -23 0 -13 -8 -99 -12 -94 -4 2 3 -3 10 -10 17 -10 9 -15 9 -17 1 -6 -18 -88
-18 -88 0 0 9 -6 12 -17 7 -14 -5 -15 -4 -6 6 9 9 10 16 2 26 -19 22 -30 15
-25 -17 2 -19 0 -30 -7 -31 -7 0 -24 -2 -39 -4 -18 -2 -31 2 -38 13 -5 9 -10
12 -10 6 0 -13 -64 -26 -86 -17 -7 3 -11 9 -8 14 3 5 0 9 -7 9 -7 0 -4 7 7 16
10 8 13 12 5 8 -11 -5 -13 -1 -8 18 5 17 1 29 -13 41 -11 9 -20 13 -21 9 0 -4
-2 -26 -5 -49 -4 -31 -1 -43 8 -43 7 0 2 -7 -10 -16 -13 -9 -31 -13 -43 -9
-16 6 -20 4 -14 -6 5 -8 -1 -5 -14 5 -14 13 -18 22 -10 27 8 4 9 32 5 89 -7
97 0 111 48 100 18 -4 41 -3 50 2 9 5 31 6 49 3 17 -3 37 -7 44 -7 6 -1 9 -7
6 -14 -2 -6 0 -15 6 -19 6 -3 11 0 12 7 0 7 4 4 9 -7 6 -14 9 5 9 57 1 76 1
77 29 80 45 6 48 2 46 -78z m-452 -44 c26 -35 34 -115 14 -139 -9 -12 -8 -13
4 -6 8 4 5 -3 -8 -17 -12 -13 -20 -28 -17 -31 3 -4 2 -5 -2 -2 -3 3 -11 1 -17
-4 -18 -15 -50 -16 -73 -3 -22 12 -23 11 -23 -33 l0 -46 -42 3 -43 3 -1 130
c0 72 2 138 4 147 5 20 14 22 109 26 70 3 72 2 95 -28z m328 -360 c0 -5 -5
-10 -11 -10 -5 0 -7 5 -4 10 3 6 8 10 11 10 2 0 4 -4 4 -10z m20 -52 c0 -6 -6
-5 -15 2 -8 7 -15 14 -15 16 0 2 7 1 15 -2 8 -4 15 -11 15 -16z"/>
<path d="M2282 2614 c-7 -7 -12 -17 -12 -23 0 -5 -6 -11 -12 -14 -9 -3 -6 -12
10 -29 12 -13 22 -29 22 -36 0 -6 4 -14 10 -17 6 -4 7 1 3 11 -4 12 -3 15 6
10 13 -8 41 10 41 27 0 6 -6 3 -12 -6 -12 -16 -13 -15 -15 5 -7 89 -14 101
-41 72z"/>
<path d="M2687 2610 c-16 -23 -33 -23 -56 -1 -12 11 -16 11 -26 -3 -7 -9 -14
-14 -16 -11 -3 2 -5 -5 -6 -16 -1 -12 2 -17 10 -12 7 4 6 0 -2 -10 -9 -12 -10
-17 -2 -17 7 0 10 -4 7 -9 -3 -5 0 -11 7 -14 16 -6 49 17 39 28 -4 5 9 -1 29
-13 45 -27 49 -27 49 -2 0 11 -5 20 -12 20 -9 0 -9 3 0 12 8 8 8 17 1 31 -8
14 -8 18 0 13 6 -4 11 0 11 8 0 22 -16 20 -33 -4z"/>
<path d="M2390 2610 c0 -5 7 -10 15 -10 8 0 15 5 15 10 0 6 -7 10 -15 10 -8 0
-15 -4 -15 -10z"/>
<path d="M3180 2606 c0 -7 7 -13 15 -13 8 0 15 4 15 8 0 4 -7 9 -15 13 -9 3
-15 0 -15 -8z"/>
<path d="M2940 2536 c0 -2 9 -6 20 -9 11 -3 20 -1 20 4 0 5 -9 9 -20 9 -11 0
-20 -2 -20 -4z"/>
<path d="M1650 2602 c0 -5 -8 -9 -17 -8 -28 2 -31 -60 -4 -67 12 -3 19 -1 16
4 -3 4 3 14 15 21 24 15 26 31 5 48 -9 7 -15 8 -15 2z"/>
</g>
</svg>
